<svg width="355" height="221" xmlns="http://www.w3.org/2000/svg" xmlns:xlink="http://www.w3.org/1999/xlink" overflow="hidden"><defs><clipPath id="clip0"><rect x="0" y="0" width="355" height="221"/></clipPath></defs><g clip-path="url(#clip0)"><rect x="0" y="0" width="355" height="221.271" fill="#FFFFFF"/><text font-family="Calibri,Calibri_MSFontService,sans-serif" font-weight="400" font-size="11" transform="matrix(1 0 0 1.00122 64.6169 30)">4</text><text fill="#FF0000" font-family="Calibri,Calibri_MSFontService,sans-serif" font-weight="400" font-size="11" transform="matrix(1 0 0 1.00122 249.035 108)">Expensive device or grid</text><text fill="#FF0000" font-family="Calibri,Calibri_MSFontService,sans-serif" font-weight="400" font-size="11" transform="matrix(1 0 0 1.00122 266.86 121)">synchronization</text><text fill="#70AD47" font-family="Calibri,Calibri_MSFontService,sans-serif" font-weight="400" font-size="11" transform="matrix(1 0 0 1.00122 192.473 64)">Combinational</text><text fill="#70AD47" font-family="Calibri,Calibri_MSFontService,sans-serif" font-weight="400" font-size="11" transform="matrix(1 0 0 1.00122 214.709 77)">DAG</text><rect x="30.5" y="15.519" width="15" height="21.0257" stroke="#000000" stroke-width="0.999531" stroke-linejoin="round" stroke-miterlimit="10" fill="none"/><path d="M35.5 36.5447 38 32.5398 40.5 36.5447Z" stroke="#000000" stroke-width="0.999531" stroke-linejoin="round" stroke-miterlimit="10" fill="none" fill-rule="evenodd"/><text font-family="Calibri,Calibri_MSFontService,sans-serif" font-weight="400" font-size="11" transform="matrix(1 0 0 1.00122 34.4343 29)">A</text><rect x="30.5" y="38.5472" width="15" height="21.0257" stroke="#000000" stroke-width="0.999531" stroke-linejoin="round" stroke-miterlimit="10" fill="none"/><path d="M35.5 59.5729 38 56.5692 40.5 59.5729Z" stroke="#000000" stroke-width="0.999531" stroke-linejoin="round" stroke-miterlimit="10" fill="none" fill-rule="evenodd"/><text font-family="Calibri,Calibri_MSFontService,sans-serif" font-weight="400" font-size="11" transform="matrix(1 0 0 1.00122 34.6009 52)">B</text><rect x="30.5" y="62.5765" width="15" height="21.0257" stroke="#000000" stroke-width="0.999531" stroke-linejoin="round" stroke-miterlimit="10" fill="none"/><path d="M35.5 83.6023 38 79.5974 40.5 83.6023Z" stroke="#000000" stroke-width="0.999531" stroke-linejoin="round" stroke-miterlimit="10" fill="none" fill-rule="evenodd"/><text font-family="Calibri,Calibri_MSFontService,sans-serif" font-weight="400" font-size="11" transform="matrix(1 0 0 1.00122 34.6842 76)">C</text><rect x="30.5" y="85.6047" width="15" height="22.0269" stroke="#000000" stroke-width="0.999531" stroke-linejoin="round" stroke-miterlimit="10" fill="none"/><path d="M35.5 107.632 38 103.627 40.5 107.632Z" stroke="#000000" stroke-width="0.999531" stroke-linejoin="round" stroke-miterlimit="10" fill="none" fill-rule="evenodd"/><text font-family="Calibri,Calibri_MSFontService,sans-serif" font-weight="400" font-size="11" transform="matrix(1 0 0 1.00122 34.2677 100)">D</text><path d="M7.5 17.5215 22.5 26.5325 7.5 35.5434Z" stroke="#000000" stroke-width="1.00075" stroke-miterlimit="8" fill="#FFFFFF" fill-rule="evenodd"/><path d="M22.5 26.5324C22.5 25.9795 23.1716 25.5313 24 25.5313 24.8285 25.5313 25.5 25.9795 25.5 26.5324 25.5 27.0854 24.8285 27.5336 24 27.5336 23.1716 27.5336 22.5 27.0854 22.5 26.5324Z" stroke="#000000" stroke-width="0.999531" stroke-miterlimit="8" fill="#FFFFFF" fill-rule="evenodd"/><path d="M7.5 42.5521 22.5 51.5631 7.5 60.5741Z" stroke="#000000" stroke-width="1.00075" stroke-miterlimit="8" fill="#FFFFFF" fill-rule="evenodd"/><path d="M7.5 65.5802 22.5 75.0918 7.5 84.6034Z" stroke="#000000" stroke-width="1.00075" stroke-miterlimit="8" fill="#FFFFFF" fill-rule="evenodd"/><path d="M22.5 75.0919C22.5 74.2624 23.1716 73.59 24 73.59 24.8285 73.59 25.5 74.2624 25.5 75.0919 25.5 75.9213 24.8285 76.5937 24 76.5937 23.1716 76.5937 22.5 75.9213 22.5 75.0919Z" stroke="#000000" stroke-width="0.999531" stroke-miterlimit="8" fill="#FFFFFF" fill-rule="evenodd"/><path d="M7.5 88.6083 22.5 98.12 7.5 107.632Z" stroke="#000000" stroke-width="1.00075" stroke-miterlimit="8" fill="#FFFFFF" fill-rule="evenodd"/><path d="M0 0 4.79775 0.000104938" stroke="#000000" stroke-width="0.666354" stroke-miterlimit="8" fill="none" fill-rule="evenodd" transform="matrix(-1 0 0 1.00122 30.2978 26.5324)"/><path d="M0 0 6.71685 0.000104938" stroke="#000000" stroke-width="0.666354" stroke-miterlimit="8" fill="none" fill-rule="evenodd" transform="matrix(-1 0 0 1.00122 8.21682 26.5324)"/><text font-family="Calibri,Calibri_MSFontService,sans-serif" font-weight="400" font-size="11" transform="matrix(1 0 0 1.00122 9.16772 30)">0</text><path d="M0 0 6.71685 0.000104938" stroke="#000000" stroke-width="0.666354" stroke-miterlimit="8" fill="none" fill-rule="evenodd" transform="matrix(-1 0 0 1.00122 29.2168 51.5631)"/><path d="M0 0 6.71685 0.000104938" stroke="#000000" stroke-width="0.666354" stroke-miterlimit="8" fill="none" fill-rule="evenodd" transform="matrix(-1 0 0 1.00122 7.21687 51.5631)"/><path d="M0 0 4.79775 0.000104938" stroke="#000000" stroke-width="0.666354" stroke-miterlimit="8" fill="none" fill-rule="evenodd" transform="matrix(-1 0 0 1.00122 30.2978 74.5913)"/><path d="M0 0 6.71685 0.000104938" stroke="#000000" stroke-width="0.666354" stroke-miterlimit="8" fill="none" fill-rule="evenodd" transform="matrix(-1 0 0 1.00122 7.21687 75.5924)"/><path d="M0 0 6.71685 0.000104938" stroke="#000000" stroke-width="0.666354" stroke-miterlimit="8" fill="none" fill-rule="evenodd" transform="matrix(-1 0 0 1.00122 29.2168 97.6194)"/><path d="M0 0 6.71685 0.000104938" stroke="#000000" stroke-width="0.666354" stroke-miterlimit="8" fill="none" fill-rule="evenodd" transform="matrix(-1 0 0 1.00122 7.21687 98.6206)"/><text font-family="Calibri,Calibri_MSFontService,sans-serif" font-weight="400" font-size="11" transform="matrix(1 0 0 1.00122 8.6679 55)">1</text><text font-family="Calibri,Calibri_MSFontService,sans-serif" font-weight="400" font-size="11" transform="matrix(1 0 0 1.00122 8.6679 79)">2</text><text font-family="Calibri,Calibri_MSFontService,sans-serif" font-weight="400" font-size="11" transform="matrix(1 0 0 1.00122 8.6679 102)">3</text><path d="M57.5 18.5226 68.5148 18.5227" stroke="#000000" stroke-width="0.999531" stroke-miterlimit="8" fill="none" fill-rule="evenodd"/><path d="M0 0 11.0148 0.0860488" stroke="#000000" stroke-width="0.999531" stroke-miterlimit="8" fill="none" fill-rule="evenodd" transform="matrix(1 0 0 -1.00122 56.5 35.6296)"/><path d="M56.5 18.5226C57.4798 21.2649 58.4596 24.0071 58.4988 26.8439 58.538 29.6807 57.6365 32.6121 56.7351 35.5434" stroke="#000000" stroke-width="0.999531" stroke-miterlimit="8" fill="none" fill-rule="evenodd"/><path d="M67.5 18.5226C70.0747 18.9533 72.6494 19.3839 74.9827 20.7188 77.3161 22.0538 79.408 24.2931 81.5 26.5325" stroke="#000000" stroke-width="0.999531" stroke-miterlimit="8" fill="none" fill-rule="evenodd"/><path d="M0 0C2.7586 0.483853 5.51725 0.967707 8.01724 2.46771 10.5172 3.96771 12.7586 6.48382 15 8.99997" stroke="#000000" stroke-width="0.999531" stroke-miterlimit="8" fill="none" fill-rule="evenodd" transform="matrix(1 0 0 -1.00122 67.5 35.5434)"/><path d="M51.5 31.5385 57.2573 31.5386" stroke="#000000" stroke-width="0.666354" stroke-miterlimit="8" fill="none" fill-rule="evenodd"/><path d="M45.5 22.5275 58.8295 22.7166" stroke="#000000" stroke-width="0.666354" stroke-miterlimit="8" fill="none" fill-rule="evenodd"/><path d="M0 0 9.5955 0.000104938" stroke="#000000" stroke-width="0.666354" stroke-miterlimit="8" fill="none" fill-rule="evenodd" transform="matrix(-1 0 0 1.00122 55.0955 22.5275)"/><path d="M0 0 5.7573 0.000104938" stroke="#000000" stroke-width="0.666354" stroke-miterlimit="8" fill="none" fill-rule="evenodd" transform="matrix(-1 0 0 1.00122 52.2573 45.5557)"/><path d="M0 0 0.000104938 14.3932" stroke="#000000" stroke-width="0.666354" stroke-miterlimit="8" fill="none" fill-rule="evenodd" transform="matrix(1 0 0 -1.00122 51.5 45.9494)"/><path d="M51.5 87.6072 66.5 96.6182 51.5 105.629Z" stroke="#000000" stroke-width="1.00075" stroke-miterlimit="8" fill="#FFFFFF" fill-rule="evenodd"/><path d="M66.5 96.6182C66.5 96.0653 67.1716 95.617 68 95.617 68.8284 95.617 69.5 96.0653 69.5 96.6182 69.5 97.1712 68.8284 97.6194 68 97.6194 67.1716 97.6194 66.5 97.1712 66.5 96.6182Z" stroke="#000000" stroke-width="0.999531" stroke-miterlimit="8" fill="#FFFFFF" fill-rule="evenodd"/><path d="M0 0 5.7573 0.000104938" stroke="#000000" stroke-width="0.666354" stroke-miterlimit="8" fill="none" fill-rule="evenodd" transform="matrix(-1 0 0 1.00122 52.2573 96.6182)"/><path d="M79.5 74.5913 89 74.5913C94.2467 74.5913 98.5 78.6256 98.5 83.6023 98.5 88.5789 94.2467 92.6133 89 92.6133L79.5 92.6133Z" stroke="#000000" stroke-width="0.999531" stroke-miterlimit="8" fill="#FFFFFF" fill-rule="evenodd"/><path d="M89.5 37.5459 100.47 37.546" stroke="#000000" stroke-width="0.999531" stroke-miterlimit="8" fill="none" fill-rule="evenodd"/><path d="M0 0 10.9698 0.101265" stroke="#000000" stroke-width="0.999531" stroke-miterlimit="8" fill="none" fill-rule="evenodd" transform="matrix(1 0 0 -1.00122 89.5 57.6718)"/><path d="M89.5 37.5459C90.4798 40.7721 91.4596 43.9983 91.4988 47.3357 91.538 50.6731 90.6366 54.1218 89.7352 57.5704" stroke="#000000" stroke-width="0.999531" stroke-miterlimit="8" fill="none" fill-rule="evenodd"/><path d="M100.5 37.5459C103.075 38.0303 105.649 38.5148 107.983 40.0166 110.316 41.5185 112.408 44.0377 114.5 46.5569" stroke="#000000" stroke-width="0.999531" stroke-miterlimit="8" fill="none" fill-rule="evenodd"/><path d="M0 0C2.7586 0.591383 5.51725 1.18277 8.01724 3.01612 10.5172 4.84948 12.7586 7.92475 15 11.0001" stroke="#000000" stroke-width="0.999531" stroke-miterlimit="8" fill="none" fill-rule="evenodd" transform="matrix(1 0 0 -1.00122 100.5 57.5704)"/><path d="M87.5 38.5472C88.4798 41.7733 89.4596 44.9995 89.4988 48.3369 89.538 51.6743 88.6366 55.123 87.7352 58.5716" stroke="#000000" stroke-width="0.999531" stroke-miterlimit="8" fill="none" fill-rule="evenodd"/><path d="M114.5 47.0575C114.5 46.2281 115.172 45.5557 116 45.5557 116.828 45.5557 117.5 46.2281 117.5 47.0575 117.5 47.887 116.828 48.5594 116 48.5594 115.172 48.5594 114.5 47.887 114.5 47.0575Z" stroke="#000000" stroke-width="0.999531" stroke-miterlimit="8" fill="#FFFFFF" fill-rule="evenodd"/><path d="M121.5 37.5459 136.5 47.0575 121.5 56.5692Z" stroke="#000000" stroke-width="1.00075" stroke-miterlimit="8" fill="#FFFFFF" fill-rule="evenodd"/><path d="M136.5 47.0575C136.5 46.2281 137.172 45.5557 138 45.5557 138.828 45.5557 139.5 46.2281 139.5 47.0575 139.5 47.887 138.828 48.5594 138 48.5594 137.172 48.5594 136.5 47.887 136.5 47.0575Z" stroke="#000000" stroke-width="0.999531" stroke-miterlimit="8" fill="#FFFFFF" fill-rule="evenodd"/><path d="M108.5 64.579 117.5 64.579C122.471 64.579 126.5 68.3892 126.5 73.0894 126.5 77.7896 122.471 81.5998 117.5 81.5998L108.5 81.5998Z" stroke="#000000" stroke-width="0.999531" stroke-miterlimit="8" fill="#FFFFFF" fill-rule="evenodd"/><rect x="144.5" y="36.5447" width="15" height="21.0257" stroke="#000000" stroke-width="0.999531" stroke-linejoin="round" stroke-miterlimit="10" fill="none"/><path d="M149.5 57.5704 151.5 54.5667 153.5 57.5704Z" stroke="#000000" stroke-width="0.999531" stroke-linejoin="round" stroke-miterlimit="10" fill="none" fill-rule="evenodd"/><text font-family="Calibri,Calibri_MSFontService,sans-serif" font-weight="400" font-size="11" transform="matrix(1 0 0 1.00122 148.824 50)">E</text><rect x="144.5" y="61.5754" width="15" height="21.0256" stroke="#000000" stroke-width="0.999531" stroke-linejoin="round" stroke-miterlimit="10" fill="none"/><path d="M149.5 82.601 151.5 79.5974 153.5 82.601Z" stroke="#000000" stroke-width="0.999531" stroke-linejoin="round" stroke-miterlimit="10" fill="none" fill-rule="evenodd"/><text font-family="Calibri,Calibri_MSFontService,sans-serif" font-weight="400" font-size="11" transform="matrix(1 0 0 1.00122 148.991 75)">F</text><path d="M0 0 4.79775 0.000104938" stroke="#000000" stroke-width="0.666354" stroke-miterlimit="8" fill="none" fill-rule="evenodd" transform="matrix(-1 0 0 1.00122 79.2978 87.6072)"/><path d="M0 0 5.7573 0.000104938" stroke="#000000" stroke-width="0.666354" stroke-miterlimit="8" fill="none" fill-rule="evenodd" transform="matrix(-1 0 0 1.00122 74.2573 96.6182)"/><path d="M0 0 0.000104938 8.63595" stroke="#000000" stroke-width="0.666354" stroke-miterlimit="8" fill="none" fill-rule="evenodd" transform="matrix(1 0 0 -1.00122 74.5 96.2537)"/><path d="M0 0 62.3707 0.000104938" stroke="#000000" stroke-width="0.666354" stroke-miterlimit="8" fill="none" fill-rule="evenodd" transform="matrix(-1 0 0 1.00122 108.871 70.5864)"/><path d="M0 0 0.000104938 8.63595" stroke="#000000" stroke-width="0.666354" stroke-miterlimit="8" fill="none" fill-rule="evenodd" transform="matrix(1 0 0 -1.00122 74.5 79.2329)"/><path d="M0 0 4.79775 0.000104938" stroke="#000000" stroke-width="0.666354" stroke-miterlimit="8" fill="none" fill-rule="evenodd" transform="matrix(-1 0 0 1.00122 79.2978 78.5962)"/><path d="M0 0 2.87865 0.000104938" stroke="#000000" stroke-width="0.666354" stroke-miterlimit="8" fill="none" fill-rule="evenodd" transform="matrix(-1 0 0 1.00122 85.3786 26.5324)"/><path d="M0 0 0.000104938 14.3932" stroke="#000000" stroke-width="0.666354" stroke-miterlimit="8" fill="none" fill-rule="evenodd" transform="matrix(1 0 0 -1.00122 84.5 41.9445)"/><path d="M0 0 6.71685 0.000104938" stroke="#000000" stroke-width="0.666354" stroke-miterlimit="8" fill="none" fill-rule="evenodd" transform="matrix(-1 0 0 1.00122 91.2168 41.5508)"/><path d="M0 0 0.000104938 19.191" stroke="#000000" stroke-width="0.666354" stroke-miterlimit="8" fill="none" fill-rule="evenodd" transform="matrix(1 0 0 -1.00122 74.5 70.7776)"/><path d="M0 0 16.3123 0.000104938" stroke="#000000" stroke-width="0.666354" stroke-miterlimit="8" fill="none" fill-rule="evenodd" transform="matrix(-1 0 0 1.00122 90.8124 51.5631)"/><path d="M0 0 4.79775 0.000104938" stroke="#000000" stroke-width="0.666354" stroke-miterlimit="8" fill="none" fill-rule="evenodd" transform="matrix(-1 0 0 1.00122 103.298 82.601)"/><path d="M0 0 0.000104938 5.7573" stroke="#000000" stroke-width="0.666354" stroke-miterlimit="8" fill="none" fill-rule="evenodd" transform="matrix(1 0 0 -1.00122 102.5 83.3592)"/><path d="M0 0 4.79775 0.000104938" stroke="#000000" stroke-width="0.666354" stroke-miterlimit="8" fill="none" fill-rule="evenodd" transform="matrix(-1 0 0 1.00122 107.298 77.5949)"/><path d="M0 0 17.2719 0.000104938" stroke="#000000" stroke-width="0.666354" stroke-miterlimit="8" fill="none" fill-rule="evenodd" transform="matrix(-1 0 0 1.00122 143.772 72.5888)"/><path d="M0 0 3.8382 0.000104938" stroke="#000000" stroke-width="0.666354" stroke-miterlimit="8" fill="none" fill-rule="evenodd" transform="matrix(-1 0 0 1.00122 121.338 46.5569)"/><path d="M0 0 4.79775 0.000104938" stroke="#000000" stroke-width="0.666354" stroke-miterlimit="8" fill="none" fill-rule="evenodd" transform="matrix(-1 0 0 1.00122 144.298 46.5569)"/><text font-family="Calibri,Calibri_MSFontService,sans-serif" font-weight="400" font-size="11" transform="matrix(1 0 0 1.00122 53.3842 100)">5</text><text font-family="Calibri,Calibri_MSFontService,sans-serif" font-weight="400" font-size="11" transform="matrix(1 0 0 1.00122 84.3999 87)">6</text><text font-family="Calibri,Calibri_MSFontService,sans-serif" font-weight="400" font-size="11" transform="matrix(1 0 0 1.00122 113.703 76)">8</text><path d="M0.500028 124.652 356.493 124.653" stroke="#000000" stroke-width="0.333177" stroke-miterlimit="8" fill="none" fill-rule="evenodd"/><text font-family="Calibri,Calibri_MSFontService,sans-serif" font-weight="700" font-size="11" transform="matrix(1 0 0 1.00122 153.897 116)">(a)</text><path d="M0 0 0.272103 58.7383" stroke="#7030A0" stroke-width="0.666354" stroke-miterlimit="8" stroke-dasharray="2.66542 1.99906" fill="none" fill-rule="evenodd" transform="matrix(1 0 0 -1.00122 141.5 91.35)"/><path d="M0 0 0.272103 86.3595" stroke="#7030A0" stroke-width="0.666354" stroke-miterlimit="8" stroke-dasharray="2.66542 1.99906" fill="none" fill-rule="evenodd" transform="matrix(1 0 0 -1.00122 27.5 104.988)"/><path d="M0 0 0.272103 86.3595" stroke="#7030A0" stroke-width="0.666354" stroke-miterlimit="8" stroke-dasharray="5.33083 1.99906" fill="none" fill-rule="evenodd" transform="matrix(1 0 0 -1.00122 48.5 103.987)"/><path d="M0 0 0.272103 58.7383" stroke="#7030A0" stroke-width="0.666354" stroke-miterlimit="8" stroke-dasharray="5.33083 1.99906" fill="none" fill-rule="evenodd" transform="matrix(1 0 0 -1.00122 162.5 90.3488)"/><path d="M258.5 43.5533C258.5 39.6826 261.634 36.5447 265.5 36.5447 269.366 36.5447 272.5 39.6826 272.5 43.5533 272.5 47.424 269.366 50.5618 265.5 50.5618 261.634 50.5618 258.5 47.424 258.5 43.5533Z" stroke="#000000" stroke-width="0.666354" stroke-miterlimit="8" fill="#70AD47" fill-rule="evenodd" fill-opacity="0.670588"/><text font-family="Calibri,Calibri_MSFontService,sans-serif" font-weight="400" font-size="11" transform="matrix(1 0 0 1.00122 262.188 47)">A</text><path d="M258.5 74.5912C258.5 70.7205 261.634 67.5826 265.5 67.5826 269.366 67.5826 272.5 70.7205 272.5 74.5912 272.5 78.462 269.366 81.5998 265.5 81.5998 261.634 81.5998 258.5 78.462 258.5 74.5912Z" stroke="#000000" stroke-width="0.666354" stroke-miterlimit="8" fill="#70AD47" fill-rule="evenodd" fill-opacity="0.670588"/><text font-family="Calibri,Calibri_MSFontService,sans-serif" font-weight="400" font-size="11" transform="matrix(1 0 0 1.00122 262.438 78)">C</text><path d="M258.5 89.6096C258.5 85.7388 261.634 82.601 265.5 82.601 269.366 82.601 272.5 85.7388 272.5 89.6096 272.5 93.4803 269.366 96.6182 265.5 96.6182 261.634 96.6182 258.5 93.4803 258.5 89.6096Z" stroke="#000000" stroke-width="0.666354" stroke-miterlimit="8" fill="#70AD47" fill-rule="evenodd" fill-opacity="0.670588"/><text font-family="Calibri,Calibri_MSFontService,sans-serif" font-weight="400" font-size="11" transform="matrix(1 0 0 1.00122 262.022 93)">D</text><path d="M286.5 50.5619C286.5 46.6911 289.634 43.5533 293.5 43.5533 297.366 43.5533 300.5 46.6911 300.5 50.5619 300.5 54.4326 297.366 57.5704 293.5 57.5704 289.634 57.5704 286.5 54.4326 286.5 50.5619Z" stroke="#000000" stroke-width="0.666354" stroke-miterlimit="8" fill="#70AD47" fill-rule="evenodd" fill-opacity="0.670588"/><text font-family="Calibri,Calibri_MSFontService,sans-serif" font-weight="400" font-size="11" transform="matrix(1 0 0 1.00122 290.383 54)">4</text><path d="M286.5 90.1102C286.5 86.516 289.634 83.6023 293.5 83.6023 297.366 83.6023 300.5 86.516 300.5 90.1102 300.5 93.7045 297.366 96.6182 293.5 96.6182 289.634 96.6182 286.5 93.7045 286.5 90.1102Z" stroke="#000000" stroke-width="0.666354" stroke-miterlimit="8" fill="#70AD47" fill-rule="evenodd" fill-opacity="0.670588"/><text font-family="Calibri,Calibri_MSFontService,sans-serif" font-weight="400" font-size="11" transform="matrix(1 0 0 1.00122 290.325 93)">5</text><path d="M311.5 50.5619C311.5 46.6911 314.634 43.5533 318.5 43.5533 322.366 43.5533 325.5 46.6911 325.5 50.5619 325.5 54.4326 322.366 57.5704 318.5 57.5704 314.634 57.5704 311.5 54.4326 311.5 50.5619Z" stroke="#000000" stroke-width="0.666354" stroke-miterlimit="8" fill="#70AD47" fill-rule="evenodd" fill-opacity="0.670588"/><text font-family="Calibri,Calibri_MSFontService,sans-serif" font-weight="400" font-size="11" transform="matrix(1 0 0 1.00122 315.113 54)">7</text><path d="M310.5 83.6023C310.5 79.7316 313.634 76.5937 317.5 76.5937 321.366 76.5937 324.5 79.7316 324.5 83.6023 324.5 87.473 321.366 90.6108 317.5 90.6108 313.634 90.6108 310.5 87.473 310.5 83.6023Z" stroke="#000000" stroke-width="0.666354" stroke-miterlimit="8" fill="#70AD47" fill-rule="evenodd" fill-opacity="0.670588"/><text font-family="Calibri,Calibri_MSFontService,sans-serif" font-weight="400" font-size="11" transform="matrix(1 0 0 1.00122 314.686 86)">6</text><path d="M334.5 50.5619C334.5 46.6911 337.634 43.5533 341.5 43.5533 345.366 43.5533 348.5 46.6911 348.5 50.5619 348.5 54.4326 345.366 57.5704 341.5 57.5704 337.634 57.5704 334.5 54.4326 334.5 50.5619Z" stroke="#000000" stroke-width="0.666354" stroke-miterlimit="8" fill="#70AD47" fill-rule="evenodd" fill-opacity="0.670588"/><text font-family="Calibri,Calibri_MSFontService,sans-serif" font-weight="400" font-size="11" transform="matrix(1 0 0 1.00122 338.203 54)">9</text><path d="M334.5 73.59C334.5 69.7193 337.634 66.5814 341.5 66.5814 345.366 66.5814 348.5 69.7193 348.5 73.59 348.5 77.4607 345.366 80.5985 341.5 80.5985 337.634 80.5985 334.5 77.4607 334.5 73.59Z" stroke="#000000" stroke-width="0.666354" stroke-miterlimit="8" fill="#70AD47" fill-rule="evenodd" fill-opacity="0.670588"/><text font-family="Calibri,Calibri_MSFontService,sans-serif" font-weight="400" font-size="11" transform="matrix(1 0 0 1.00122 338.203 77)">8</text><path d="M272.5 43.5533 286.443 50.893" stroke="#000000" stroke-width="0.666354" stroke-miterlimit="8" fill="none" fill-rule="evenodd"/><path d="M0 0 13.9427 8.07883" stroke="#000000" stroke-width="0.666354" stroke-miterlimit="8" fill="none" fill-rule="evenodd" transform="matrix(-1 0 0 1.00122 286.443 50.5618)"/><path d="M258.5 58.5716C258.5 54.7009 261.634 51.5631 265.5 51.5631 269.366 51.5631 272.5 54.7009 272.5 58.5716 272.5 62.4423 269.366 65.5802 265.5 65.5802 261.634 65.5802 258.5 62.4423 258.5 58.5716Z" stroke="#000000" stroke-width="0.666354" stroke-miterlimit="8" fill="#70AD47" fill-rule="evenodd" fill-opacity="0.670588"/><text font-family="Calibri,Calibri_MSFontService,sans-serif" font-weight="400" font-size="11" transform="matrix(1 0 0 1.00122 262.355 62)">B</text><path d="M300.5 50.5618 311.395 50.562" stroke="#000000" stroke-width="0.666354" stroke-miterlimit="8" fill="none" fill-rule="evenodd"/><path d="M325.5 50.5618 334.755 50.6182" stroke="#000000" stroke-width="0.666354" stroke-miterlimit="8" fill="none" fill-rule="evenodd"/><path d="M286.385 90.0133 272.5 89.6096" stroke="#000000" stroke-width="0.666354" stroke-miterlimit="8" fill="none" fill-rule="evenodd"/><path d="M0 0 10.526 6.71727" stroke="#000000" stroke-width="0.666354" stroke-miterlimit="8" fill="none" fill-rule="evenodd" transform="matrix(-1 0 0 1.00122 311.026 83.6023)"/><path d="M0 0 9.68154 9.49465" stroke="#000000" stroke-width="0.666354" stroke-miterlimit="8" fill="none" fill-rule="evenodd" transform="matrix(-1 0 0 1.00122 334.182 73.59)"/><path d="M310.746 83.4637 272.5 74.5913" stroke="#000000" stroke-width="0.666354" stroke-miterlimit="8" fill="none" fill-rule="evenodd"/><path d="M0 0 38.6729 23.5828" stroke="#000000" stroke-width="0.666354" stroke-miterlimit="8" fill="none" fill-rule="evenodd" transform="matrix(-1 0 0 1.00122 311.173 50.5618)"/><path d="M0 0 61.7631 0.633089" stroke="#000000" stroke-width="0.666354" stroke-miterlimit="8" fill="none" fill-rule="evenodd" transform="matrix(-1 0 0 1.00122 334.263 73.59)"/><text font-family="Calibri,Calibri_MSFontService,sans-serif" font-weight="400" font-size="11" transform="matrix(1 0 0 1.00122 97.9473 50)">7</text><text font-family="Calibri,Calibri_MSFontService,sans-serif" font-weight="400" font-size="11" transform="matrix(1 0 0 1.00122 123.257 50)">9</text><path d="M253.5 135.666C253.5 131.795 256.634 128.657 260.5 128.657 264.366 128.657 267.5 131.795 267.5 135.666 267.5 139.537 264.366 142.675 260.5 142.675 256.634 142.675 253.5 139.537 253.5 135.666Z" stroke="#000000" stroke-width="0.666354" stroke-miterlimit="8" fill="#ED7D31" fill-rule="evenodd" fill-opacity="0.568627"/><text font-family="Calibri,Calibri_MSFontService,sans-serif" font-weight="400" font-size="11" transform="matrix(1 0 0 1.00122 257.005 139)">A</text><path d="M253.5 164.701C253.5 160.831 256.634 157.693 260.5 157.693 264.366 157.693 267.5 160.831 267.5 164.701 267.5 168.572 264.366 171.71 260.5 171.71 256.634 171.71 253.5 168.572 253.5 164.701Z" stroke="#000000" stroke-width="0.666354" stroke-miterlimit="8" fill="#ED7D31" fill-rule="evenodd" fill-opacity="0.568627"/><text font-family="Calibri,Calibri_MSFontService,sans-serif" font-weight="400" font-size="11" transform="matrix(1 0 0 1.00122 257.255 168)">C</text><path d="M279.5 135.666C279.5 131.795 282.634 128.657 286.5 128.657 290.366 128.657 293.5 131.795 293.5 135.666 293.5 139.537 290.366 142.675 286.5 142.675 282.634 142.675 279.5 139.537 279.5 135.666Z" stroke="#000000" stroke-width="0.666354" stroke-miterlimit="8" fill="#ED7D31" fill-rule="evenodd" fill-opacity="0.568627"/><text font-family="Calibri,Calibri_MSFontService,sans-serif" font-weight="400" font-size="11" transform="matrix(1 0 0 1.00122 283.687 139)">4</text><path d="M305.5 142.674C305.5 138.804 308.634 135.666 312.5 135.666 316.366 135.666 319.5 138.804 319.5 142.674 319.5 146.545 316.366 149.683 312.5 149.683 308.634 149.683 305.5 146.545 305.5 142.674Z" stroke="#000000" stroke-width="0.666354" stroke-miterlimit="8" fill="#ED7D31" fill-rule="evenodd" fill-opacity="0.568627"/><text font-family="Calibri,Calibri_MSFontService,sans-serif" font-weight="400" font-size="11" transform="matrix(1 0 0 1.00122 309.071 146)">7</text><path d="M326.5 142.674C326.5 138.804 329.634 135.666 333.5 135.666 337.366 135.666 340.5 138.804 340.5 142.674 340.5 146.545 337.366 149.683 333.5 149.683 329.634 149.683 326.5 146.545 326.5 142.674Z" stroke="#000000" stroke-width="0.666354" stroke-miterlimit="8" fill="#ED7D31" fill-rule="evenodd" fill-opacity="0.568627"/><text font-family="Calibri,Calibri_MSFontService,sans-serif" font-weight="400" font-size="11" transform="matrix(1 0 0 1.00122 330.737 146)">9</text><path d="M0 0 12.4296 0.0230863" stroke="#000000" stroke-width="0.666354" stroke-miterlimit="8" fill="none" fill-rule="evenodd" transform="matrix(1 0 0 -1.00122 267.5 135.689)"/><path d="M0 0 12.4296 14.6831" stroke="#000000" stroke-width="0.666354" stroke-miterlimit="8" fill="none" fill-rule="evenodd" transform="matrix(-1 0 0 1.00122 279.93 135.666)"/><path d="M253.5 150.184C253.5 146.589 256.634 143.676 260.5 143.676 264.366 143.676 267.5 146.589 267.5 150.184 267.5 153.778 264.366 156.692 260.5 156.692 256.634 156.692 253.5 153.778 253.5 150.184Z" stroke="#000000" stroke-width="0.666354" stroke-miterlimit="8" fill="#ED7D31" fill-rule="evenodd" fill-opacity="0.568627"/><text font-family="Calibri,Calibri_MSFontService,sans-serif" font-weight="400" font-size="11" transform="matrix(1 0 0 1.00122 257.172 153)">B</text><path d="M293.5 135.666 305.05 143.029" stroke="#000000" stroke-width="0.666354" stroke-miterlimit="8" fill="none" fill-rule="evenodd"/><path d="M319.5 142.675 327.331 142.731" stroke="#000000" stroke-width="0.666354" stroke-miterlimit="8" fill="none" fill-rule="evenodd"/><path d="M0 0 37.8144 21.6771" stroke="#000000" stroke-width="0.666354" stroke-miterlimit="8" fill="none" fill-rule="evenodd" transform="matrix(-1 0 0 1.00122 305.314 142.675)"/><path d="M254.5 184.726C254.5 180.855 257.41 177.717 261 177.717 264.59 177.717 267.5 180.855 267.5 184.726 267.5 188.597 264.59 191.735 261 191.735 257.41 191.735 254.5 188.597 254.5 184.726Z" stroke="#000000" stroke-width="0.666354" stroke-miterlimit="8" fill="#ED7D31" fill-rule="evenodd" fill-opacity="0.568627"/><text font-family="Calibri,Calibri_MSFontService,sans-serif" font-weight="400" font-size="11" transform="matrix(1 0 0 1.00122 257.728 188)">C</text><path d="M254.5 199.744C254.5 195.874 257.41 192.736 261 192.736 264.59 192.736 267.5 195.874 267.5 199.744 267.5 203.615 264.59 206.753 261 206.753 257.41 206.753 254.5 203.615 254.5 199.744Z" stroke="#000000" stroke-width="0.666354" stroke-miterlimit="8" fill="#ED7D31" fill-rule="evenodd" fill-opacity="0.568627"/><text font-family="Calibri,Calibri_MSFontService,sans-serif" font-weight="400" font-size="11" transform="matrix(1 0 0 1.00122 257.2 203)">D</text><path d="M279.5 199.744C279.5 195.874 282.634 192.736 286.5 192.736 290.366 192.736 293.5 195.874 293.5 199.744 293.5 203.615 290.366 206.753 286.5 206.753 282.634 206.753 279.5 203.615 279.5 199.744Z" stroke="#000000" stroke-width="0.666354" stroke-miterlimit="8" fill="#ED7D31" fill-rule="evenodd" fill-opacity="0.568627"/><text font-family="Calibri,Calibri_MSFontService,sans-serif" font-weight="400" font-size="11" transform="matrix(1 0 0 1.00122 283.148 203)">5</text><path d="M306.5 199.744C306.5 195.874 309.634 192.736 313.5 192.736 317.366 192.736 320.5 195.874 320.5 199.744 320.5 203.615 317.366 206.753 313.5 206.753 309.634 206.753 306.5 203.615 306.5 199.744Z" stroke="#000000" stroke-width="0.666354" stroke-miterlimit="8" fill="#ED7D31" fill-rule="evenodd" fill-opacity="0.568627"/><text font-family="Calibri,Calibri_MSFontService,sans-serif" font-weight="400" font-size="11" transform="matrix(1 0 0 1.00122 309.93 203)">6</text><path d="M326.5 184.726C326.5 180.855 329.634 177.717 333.5 177.717 337.366 177.717 340.5 180.855 340.5 184.726 340.5 188.597 337.366 191.735 333.5 191.735 329.634 191.735 326.5 188.597 326.5 184.726Z" stroke="#000000" stroke-width="0.666354" stroke-miterlimit="8" fill="#ED7D31" fill-rule="evenodd" fill-opacity="0.568627"/><text font-family="Calibri,Calibri_MSFontService,sans-serif" font-weight="400" font-size="11" transform="matrix(1 0 0 1.00122 330.7 188)">8</text><path d="M267.5 199.744 279.03 199.744" stroke="#000000" stroke-width="0.666354" stroke-miterlimit="8" fill="none" fill-rule="evenodd"/><path d="M293.5 199.744 306.446 199.744" stroke="#000000" stroke-width="0.666354" stroke-miterlimit="8" fill="none" fill-rule="evenodd"/><path d="M267.5 184.726 307.726 194.547" stroke="#000000" stroke-width="0.666354" stroke-miterlimit="8" fill="none" fill-rule="evenodd"/><path d="M0 0 58.9709 0.474003" stroke="#000000" stroke-width="0.666354" stroke-miterlimit="8" fill="none" fill-rule="evenodd" transform="matrix(1 0 0 -1.00122 267.5 185.201)"/><path d="M0 0 10.9879 5.41541" stroke="#000000" stroke-width="0.666354" stroke-miterlimit="8" fill="none" fill-rule="evenodd" transform="matrix(-1 0 0 1.00122 328.488 189.732)"/><path d="M258.5 8.51041C258.5 4.63967 261.634 1.50181 265.5 1.50181 269.366 1.50181 272.5 4.63967 272.5 8.51041 272.5 12.3811 269.366 15.519 265.5 15.519 261.634 15.519 258.5 12.3811 258.5 8.51041Z" stroke="#000000" stroke-width="0.666354" stroke-miterlimit="8" fill="#0000FF" fill-rule="evenodd" fill-opacity="0.470588"/><text font-family="Calibri,Calibri_MSFontService,sans-serif" font-weight="400" font-size="11" transform="matrix(1 0 0 1.00122 262.545 12)">0</text><path d="M0 0 0.000104938 4.79775" stroke="#000000" stroke-width="0.666354" stroke-miterlimit="8" fill="none" fill-rule="evenodd" transform="matrix(1 0 0 -1.00122 265.5 20.3226)"/><path d="M258.5 26.5325C258.5 22.6617 261.634 19.5239 265.5 19.5239 269.366 19.5239 272.5 22.6617 272.5 26.5325 272.5 30.4032 269.366 33.541 265.5 33.541 261.634 33.541 258.5 30.4032 258.5 26.5325Z" stroke="#000000" stroke-width="0.666354" stroke-miterlimit="8" fill="#0000FF" fill-rule="evenodd" fill-opacity="0.470588"/><text font-family="Calibri,Calibri_MSFontService,sans-serif" font-weight="400" font-size="11" transform="matrix(1 0 0 1.00122 262.128 30)">A</text><path d="M274.5 8.51041C274.5 4.63967 277.634 1.50181 281.5 1.50181 285.366 1.50181 288.5 4.63967 288.5 8.51041 288.5 12.3811 285.366 15.519 281.5 15.519 277.634 15.519 274.5 12.3811 274.5 8.51041Z" stroke="#000000" stroke-width="0.666354" stroke-miterlimit="8" fill="#0000FF" fill-rule="evenodd" fill-opacity="0.470588"/><text font-family="Calibri,Calibri_MSFontService,sans-serif" font-weight="400" font-size="11" transform="matrix(1 0 0 1.00122 278.537 12)">1</text><path d="M0 0 0.000104938 4.79775" stroke="#000000" stroke-width="0.666354" stroke-miterlimit="8" fill="none" fill-rule="evenodd" transform="matrix(1 0 0 -1.00122 281.5 20.3226)"/><path d="M274.5 26.5325C274.5 22.6617 277.634 19.5239 281.5 19.5239 285.366 19.5239 288.5 22.6617 288.5 26.5325 288.5 30.4032 285.366 33.541 281.5 33.541 277.634 33.541 274.5 30.4032 274.5 26.5325Z" stroke="#000000" stroke-width="0.666354" stroke-miterlimit="8" fill="#0000FF" fill-rule="evenodd" fill-opacity="0.470588"/><text font-family="Calibri,Calibri_MSFontService,sans-serif" font-weight="400" font-size="11" transform="matrix(1 0 0 1.00122 278.288 30)">B</text><path d="M290.5 8.51041C290.5 4.63967 293.634 1.50181 297.5 1.50181 301.366 1.50181 304.5 4.63967 304.5 8.51041 304.5 12.3811 301.366 15.519 297.5 15.519 293.634 15.519 290.5 12.3811 290.5 8.51041Z" stroke="#000000" stroke-width="0.666354" stroke-miterlimit="8" fill="#0000FF" fill-rule="evenodd" fill-opacity="0.470588"/><text font-family="Calibri,Calibri_MSFontService,sans-serif" font-weight="400" font-size="11" transform="matrix(1 0 0 1.00122 294.53 12)">2</text><path d="M0 0 0.000104938 4.79775" stroke="#000000" stroke-width="0.666354" stroke-miterlimit="8" fill="none" fill-rule="evenodd" transform="matrix(1 0 0 -1.00122 297.5 20.3226)"/><path d="M290.5 26.5325C290.5 22.6617 293.634 19.5239 297.5 19.5239 301.366 19.5239 304.5 22.6617 304.5 26.5325 304.5 30.4032 301.366 33.541 297.5 33.541 293.634 33.541 290.5 30.4032 290.5 26.5325Z" stroke="#000000" stroke-width="0.666354" stroke-miterlimit="8" fill="#0000FF" fill-rule="evenodd" fill-opacity="0.470588"/><text font-family="Calibri,Calibri_MSFontService,sans-serif" font-weight="400" font-size="11" transform="matrix(1 0 0 1.00122 294.363 30)">C</text><path d="M306.5 8.51041C306.5 4.63967 309.634 1.50181 313.5 1.50181 317.366 1.50181 320.5 4.63967 320.5 8.51041 320.5 12.3811 317.366 15.519 313.5 15.519 309.634 15.519 306.5 12.3811 306.5 8.51041Z" stroke="#000000" stroke-width="0.666354" stroke-miterlimit="8" fill="#0000FF" fill-rule="evenodd" fill-opacity="0.470588"/><text font-family="Calibri,Calibri_MSFontService,sans-serif" font-weight="400" font-size="11" transform="matrix(1 0 0 1.00122 310.522 12)">3</text><path d="M0 0 0.000104938 4.79775" stroke="#000000" stroke-width="0.666354" stroke-miterlimit="8" fill="none" fill-rule="evenodd" transform="matrix(1 0 0 -1.00122 313.5 20.3226)"/><path d="M306.5 26.5325C306.5 22.6617 309.634 19.5239 313.5 19.5239 317.366 19.5239 320.5 22.6617 320.5 26.5325 320.5 30.4032 317.366 33.541 313.5 33.541 309.634 33.541 306.5 30.4032 306.5 26.5325Z" stroke="#000000" stroke-width="0.666354" stroke-miterlimit="8" fill="#0000FF" fill-rule="evenodd" fill-opacity="0.470588"/><text font-family="Calibri,Calibri_MSFontService,sans-serif" font-weight="400" font-size="11" transform="matrix(1 0 0 1.00122 309.939 30)">D</text><path d="M322.5 8.51041C322.5 4.63967 325.634 1.50181 329.5 1.50181 333.366 1.50181 336.5 4.63967 336.5 8.51041 336.5 12.3811 333.366 15.519 329.5 15.519 325.634 15.519 322.5 12.3811 322.5 8.51041Z" stroke="#000000" stroke-width="0.666354" stroke-miterlimit="8" fill="#0000FF" fill-rule="evenodd" fill-opacity="0.470588"/><text font-family="Calibri,Calibri_MSFontService,sans-serif" font-weight="400" font-size="11" transform="matrix(1 0 0 1.00122 326.515 12)">9</text><path d="M0 0 0.000104938 4.79775" stroke="#000000" stroke-width="0.666354" stroke-miterlimit="8" fill="none" fill-rule="evenodd" transform="matrix(1 0 0 -1.00122 329.5 20.3226)"/><path d="M322.5 26.5325C322.5 22.6617 325.634 19.5239 329.5 19.5239 333.366 19.5239 336.5 22.6617 336.5 26.5325 336.5 30.4032 333.366 33.541 329.5 33.541 325.634 33.541 322.5 30.4032 322.5 26.5325Z" stroke="#000000" stroke-width="0.666354" stroke-miterlimit="8" fill="#0000FF" fill-rule="evenodd" fill-opacity="0.470588"/><text font-family="Calibri,Calibri_MSFontService,sans-serif" font-weight="400" font-size="11" transform="matrix(1 0 0 1.00122 326.598 30)">E</text><path d="M338.5 8.51041C338.5 4.63967 341.634 1.50181 345.5 1.50181 349.366 1.50181 352.5 4.63967 352.5 8.51041 352.5 12.3811 349.366 15.519 345.5 15.519 341.634 15.519 338.5 12.3811 338.5 8.51041Z" stroke="#000000" stroke-width="0.666354" stroke-miterlimit="8" fill="#0000FF" fill-rule="evenodd" fill-opacity="0.470588"/><text font-family="Calibri,Calibri_MSFontService,sans-serif" font-weight="400" font-size="11" transform="matrix(1 0 0 1.00122 342.507 12)">8</text><path d="M0 0 0.000104938 4.79775" stroke="#000000" stroke-width="0.666354" stroke-miterlimit="8" fill="none" fill-rule="evenodd" transform="matrix(1 0 0 -1.00122 345.5 20.3226)"/><path d="M338.5 26.5325C338.5 22.6617 341.634 19.5239 345.5 19.5239 349.366 19.5239 352.5 22.6617 352.5 26.5325 352.5 30.4032 349.366 33.541 345.5 33.541 341.634 33.541 338.5 30.4032 338.5 26.5325Z" stroke="#000000" stroke-width="0.666354" stroke-miterlimit="8" fill="#0000FF" fill-rule="evenodd" fill-opacity="0.470588"/><text font-family="Calibri,Calibri_MSFontService,sans-serif" font-weight="400" font-size="11" transform="matrix(1 0 0 1.00122 342.757 30)">F</text><path d="M14.5 135.666C14.5 131.795 17.634 128.657 21.5 128.657 25.366 128.657 28.5 131.795 28.5 135.666 28.5 139.537 25.366 142.675 21.5 142.675 17.634 142.675 14.5 139.537 14.5 135.666Z" stroke="#000000" stroke-width="0.666354" stroke-miterlimit="8" fill="#70AD47" fill-rule="evenodd" fill-opacity="0.670588"/><text font-family="Calibri,Calibri_MSFontService,sans-serif" font-weight="400" font-size="11" transform="matrix(1 0 0 1.00122 18.1351 139)">A</text><path d="M14.5 166.704C14.5 162.833 17.634 159.695 21.5 159.695 25.366 159.695 28.5 162.833 28.5 166.704 28.5 170.575 25.366 173.712 21.5 173.712 17.634 173.712 14.5 170.575 14.5 166.704Z" stroke="#000000" stroke-width="0.666354" stroke-miterlimit="8" fill="#70AD47" fill-rule="evenodd" fill-opacity="0.670588"/><text font-family="Calibri,Calibri_MSFontService,sans-serif" font-weight="400" font-size="11" transform="matrix(1 0 0 1.00122 18.385 170)">C</text><path d="M14.5 181.722C14.5 177.852 17.634 174.714 21.5 174.714 25.366 174.714 28.5 177.852 28.5 181.722 28.5 185.593 25.366 188.731 21.5 188.731 17.634 188.731 14.5 185.593 14.5 181.722Z" stroke="#000000" stroke-width="0.666354" stroke-miterlimit="8" fill="#70AD47" fill-rule="evenodd" fill-opacity="0.670588"/><text font-family="Calibri,Calibri_MSFontService,sans-serif" font-weight="400" font-size="11" transform="matrix(1 0 0 1.00122 17.9685 185)">D</text><path d="M42.5 143.175C42.5 139.581 45.634 136.667 49.5 136.667 53.366 136.667 56.5 139.581 56.5 143.175 56.5 146.769 53.366 149.683 49.5 149.683 45.634 149.683 42.5 146.769 42.5 143.175Z" stroke="#000000" stroke-width="0.666354" stroke-miterlimit="8" fill="#70AD47" fill-rule="evenodd" fill-opacity="0.670588"/><text font-family="Calibri,Calibri_MSFontService,sans-serif" font-weight="400" font-size="11" transform="matrix(1 0 0 1.00122 46.3295 147)">4</text><path d="M42.5 182.723C42.5 178.853 45.634 175.715 49.5 175.715 53.366 175.715 56.5 178.853 56.5 182.723 56.5 186.594 53.366 189.732 49.5 189.732 45.634 189.732 42.5 186.594 42.5 182.723Z" stroke="#000000" stroke-width="0.666354" stroke-miterlimit="8" fill="#70AD47" fill-rule="evenodd" fill-opacity="0.670588"/><text font-family="Calibri,Calibri_MSFontService,sans-serif" font-weight="400" font-size="11" transform="matrix(1 0 0 1.00122 46.272 186)">5</text><path d="M67.5 143.175C67.5 139.581 70.634 136.667 74.5 136.667 78.366 136.667 81.5 139.581 81.5 143.175 81.5 146.769 78.366 149.683 74.5 149.683 70.634 149.683 67.5 146.769 67.5 143.175Z" stroke="#000000" stroke-width="0.666354" stroke-miterlimit="8" fill="#70AD47" fill-rule="evenodd" fill-opacity="0.670588"/><text font-family="Calibri,Calibri_MSFontService,sans-serif" font-weight="400" font-size="11" transform="matrix(1 0 0 1.00122 71.0597 147)">7</text><path d="M66.5 175.715C66.5 171.844 69.634 168.706 73.5 168.706 77.366 168.706 80.5 171.844 80.5 175.715 80.5 179.586 77.366 182.724 73.5 182.724 69.634 182.724 66.5 179.586 66.5 175.715Z" stroke="#000000" stroke-width="0.666354" stroke-miterlimit="8" fill="#70AD47" fill-rule="evenodd" fill-opacity="0.670588"/><text font-family="Calibri,Calibri_MSFontService,sans-serif" font-weight="400" font-size="11" transform="matrix(1 0 0 1.00122 70.6332 179)">6</text><path d="M90.5 143.676C90.5 139.805 93.634 136.667 97.5 136.667 101.366 136.667 104.5 139.805 104.5 143.676 104.5 147.546 101.366 150.684 97.5 150.684 93.634 150.684 90.5 147.546 90.5 143.676Z" stroke="#000000" stroke-width="0.666354" stroke-miterlimit="8" fill="#70AD47" fill-rule="evenodd" fill-opacity="0.670588"/><text font-family="Calibri,Calibri_MSFontService,sans-serif" font-weight="400" font-size="11" transform="matrix(1 0 0 1.00122 94.1499 147)">9</text><path d="M90.5 166.203C90.5 162.609 93.634 159.695 97.5 159.695 101.366 159.695 104.5 162.609 104.5 166.203 104.5 169.798 101.366 172.711 97.5 172.711 93.634 172.711 90.5 169.798 90.5 166.203Z" stroke="#000000" stroke-width="0.666354" stroke-miterlimit="8" fill="#70AD47" fill-rule="evenodd" fill-opacity="0.670588"/><text font-family="Calibri,Calibri_MSFontService,sans-serif" font-weight="400" font-size="11" transform="matrix(1 0 0 1.00122 94.1499 170)">8</text><path d="M28.5 135.666 42.4427 143.006" stroke="#000000" stroke-width="0.666354" stroke-miterlimit="8" fill="none" fill-rule="evenodd"/><path d="M0 0 13.9427 8.07883" stroke="#000000" stroke-width="0.666354" stroke-miterlimit="8" fill="none" fill-rule="evenodd" transform="matrix(-1 0 0 1.00122 42.4428 143.676)"/><path d="M14.5 151.686C14.5 147.815 17.634 144.677 21.5 144.677 25.366 144.677 28.5 147.815 28.5 151.686 28.5 155.556 25.366 158.694 21.5 158.694 17.634 158.694 14.5 155.556 14.5 151.686Z" stroke="#000000" stroke-width="0.666354" stroke-miterlimit="8" fill="#70AD47" fill-rule="evenodd" fill-opacity="0.670588"/><text font-family="Calibri,Calibri_MSFontService,sans-serif" font-weight="400" font-size="11" transform="matrix(1 0 0 1.00122 18.3017 155)">B</text><path d="M56.5 143.676 67.3949 143.676" stroke="#000000" stroke-width="0.666354" stroke-miterlimit="8" fill="none" fill-rule="evenodd"/><path d="M81.5 143.676 90.7551 143.732" stroke="#000000" stroke-width="0.666354" stroke-miterlimit="8" fill="none" fill-rule="evenodd"/><path d="M42.3852 182.126 28.5 181.722" stroke="#000000" stroke-width="0.666354" stroke-miterlimit="8" fill="none" fill-rule="evenodd"/><path d="M0 0 10.526 6.71727" stroke="#000000" stroke-width="0.666354" stroke-miterlimit="8" fill="none" fill-rule="evenodd" transform="matrix(-1 0 0 1.00122 67.026 175.715)"/><path d="M0 0 9.68154 9.49465" stroke="#000000" stroke-width="0.666354" stroke-miterlimit="8" fill="none" fill-rule="evenodd" transform="matrix(-1 0 0 1.00122 90.1815 166.704)"/><path d="M66.7464 175.576 28.5 166.704" stroke="#000000" stroke-width="0.666354" stroke-miterlimit="8" fill="none" fill-rule="evenodd"/><path d="M0 0 38.6729 23.5828" stroke="#000000" stroke-width="0.666354" stroke-miterlimit="8" fill="none" fill-rule="evenodd" transform="matrix(-1 0 0 1.00122 67.1729 143.676)"/><path d="M0 0 61.7631 0.633089" stroke="#000000" stroke-width="0.666354" stroke-miterlimit="8" fill="none" fill-rule="evenodd" transform="matrix(-1 0 0 1.00122 90.2631 166.704)"/><path d="M0 0 118.218 38.3866" stroke="#AFABAB" stroke-width="0.666354" stroke-miterlimit="8" stroke-dasharray="2.66542 1.99906" fill="none" fill-rule="evenodd" transform="matrix(1 0 0 -1.00122 4.50004 180.107)"/><path d="M0 0 119.343 0.794063" stroke="#AFABAB" stroke-width="0.666354" stroke-miterlimit="8" stroke-dasharray="2.66542 1.99906" fill="none" fill-rule="evenodd" transform="matrix(1 0 0 -1.00122 2.50003 158.488)"/><text font-family="Wingdings,Wingdings_MSFontService,sans-serif" font-weight="400" font-size="24" transform="matrix(-1 1.22765e-16 -1.22315e-16 -1.00122 137.332 134)"></text><path d="M174.5 38.5471 185.5 38.5471 185.5 35.5434 191.5 41.5508 185.5 47.5581 185.5 44.5545 174.5 44.5545Z" stroke="#000000" stroke-width="0.999531" stroke-miterlimit="8" fill="none" fill-rule="evenodd"/><text fill="#0000FF" font-family="Calibri,Calibri_MSFontService,sans-serif" font-weight="400" font-size="11" transform="matrix(1 0 0 1.00122 184.274 11)">Sequential DAG</text><path d="M0 0 0.272103 58.7383" stroke="#FF0000" stroke-width="0.666354" stroke-miterlimit="8" stroke-dasharray="5.33083 1.99906" fill="none" fill-rule="evenodd" transform="matrix(1 0 0 -1.00122 279.5 94.3537)"/><path d="M0 0 0.272103 58.7383" stroke="#FF0000" stroke-width="0.666354" stroke-miterlimit="8" stroke-dasharray="5.33083 1.99906" fill="none" fill-rule="evenodd" transform="matrix(1 0 0 -1.00122 305.5 94.3537)"/><path d="M0 0 0.272103 58.7383" stroke="#FF0000" stroke-width="0.666354" stroke-miterlimit="8" stroke-dasharray="5.33083 1.99906" fill="none" fill-rule="evenodd" transform="matrix(1 0 0 -1.00122 330.5 94.3537)"/><text fill="#BFBFBF" font-family="Calibri,Calibri_MSFontService,sans-serif" font-weight="400" font-size="11" transform="matrix(1 0 0 1.00122 20.4952 199)">Combinational DAG</text><text fill="#BFBFBF" font-family="Calibri,Calibri_MSFontService,sans-serif" font-weight="400" font-size="11" transform="matrix(1 0 0 1.00122 37.7338 212)">partitioning</text><path d="M146.5 158.694 158.5 158.694 158.5 155.69 164.5 161.698 158.5 167.705 158.5 164.701 146.5 164.701Z" stroke="#000000" stroke-width="0.999531" stroke-miterlimit="8" fill="none" fill-rule="evenodd"/><text fill="#ED7D31" font-family="Calibri,Calibri_MSFontService,sans-serif" font-weight="400" font-size="11" transform="matrix(1 0 0 1.00122 164.718 158)">Independent Logic</text><text fill="#ED7D31" font-family="Calibri,Calibri_MSFontService,sans-serif" font-weight="400" font-size="11" transform="matrix(1 0 0 1.00122 177.212 171)">Cone Graphs</text><path d="M0 0 0.000104938 45.2638" stroke="#70AD47" stroke-width="0.666354" stroke-linecap="square" stroke-miterlimit="8" stroke-dasharray="1.99906 0.666354" fill="none" fill-rule="evenodd" transform="matrix(1 0 0 -1.00122 274.5 172.975)"/><path d="M0 0 0.000104938 45.2638" stroke="#70AD47" stroke-width="0.666354" stroke-linecap="square" stroke-miterlimit="8" stroke-dasharray="1.99906 0.666354" fill="none" fill-rule="evenodd" transform="matrix(1 0 0 -1.00122 301.5 172.975)"/><path d="M0 0 0.000104938 45.2638" stroke="#70AD47" stroke-width="0.666354" stroke-linecap="square" stroke-miterlimit="8" stroke-dasharray="1.99906 0.666354" fill="none" fill-rule="evenodd" transform="matrix(1 0 0 -1.00122 323.5 171.974)"/><path d="M0 0 0.000104938 30.6449" stroke="#70AD47" stroke-width="0.666354" stroke-linecap="square" stroke-miterlimit="8" stroke-dasharray="1.99906 0.666354" fill="none" fill-rule="evenodd" transform="matrix(1 0 0 -1.00122 274.5 208.4)"/><path d="M0 0 0.000104938 30.6449" stroke="#70AD47" stroke-width="0.666354" stroke-linecap="square" stroke-miterlimit="8" stroke-dasharray="1.99906 0.666354" fill="none" fill-rule="evenodd" transform="matrix(1 0 0 -1.00122 301.5 208.4)"/><path d="M0 0 0.000104938 30.6449" stroke="#70AD47" stroke-width="0.666354" stroke-linecap="square" stroke-miterlimit="8" stroke-dasharray="1.99906 0.666354" fill="none" fill-rule="evenodd" transform="matrix(1 0 0 -1.00122 323.5 208.4)"/><text fill="#70AD47" font-family="Calibri,Calibri_MSFontService,sans-serif" font-weight="400" font-size="11" transform="matrix(1 0 0 1.00122 239.74 218)">Fast block synchronization</text><rect x="247.5" y="126.655" width="104" height="45.0551" stroke="#70AD47" stroke-width="0.999531" stroke-miterlimit="8" fill="none"/><rect x="247.5" y="175.715" width="104" height="34.0416" stroke="#70AD47" stroke-width="0.999531" stroke-miterlimit="8" fill="none"/><rect x="176.5" y="177.717" width="59" height="39.0478" stroke="#70AD47" stroke-width="0.999531" stroke-miterlimit="8" fill="none"/><text fill="#70AD47" font-family="Calibri,Calibri_MSFontService,sans-serif" font-weight="400" font-size="11" transform="matrix(1 0 0 1.00122 191.796 187)">1 GPU</text><text fill="#70AD47" font-family="Calibri,Calibri_MSFontService,sans-serif" font-weight="400" font-size="11" transform="matrix(1 0 0 1.00122 190.63 200)">thread</text><text fill="#70AD47" font-family="Calibri,Calibri_MSFontService,sans-serif" font-weight="400" font-size="11" transform="matrix(1 0 0 1.00122 193.548 214)">block</text><text font-family="Calibri,Calibri_MSFontService,sans-serif" font-weight="700" font-size="11" transform="matrix(1 0 0 1.00122 148.633 211)">(b)</text></g></svg>