<svg width="355" height="142" xmlns="http://www.w3.org/2000/svg" xmlns:xlink="http://www.w3.org/1999/xlink" overflow="hidden"><defs><clipPath id="clip0"><rect x="0" y="0" width="355" height="142"/></clipPath></defs><g clip-path="url(#clip0)"><rect x="0" y="0" width="355" height="142.067" fill="#FFFFFF"/><rect x="3.49998" y="39.5185" width="112" height="31.0146" stroke="#000000" stroke-width="0.999531" stroke-miterlimit="8" fill="#ED7D31" fill-opacity="0.568627"/><rect x="24.5" y="113.553" width="74" height="26.0122" stroke="#000000" stroke-width="0.999531" stroke-miterlimit="8" fill="#70AD47" fill-opacity="0.670588"/><rect x="3.49998" y="11.5054" width="113" height="16.0075" stroke="#000000" stroke-width="0.999531" stroke-miterlimit="8" fill="#0000FF" fill-opacity="0.470588"/><text font-family="Calibri,Calibri_MSFontService,sans-serif" font-weight="400" font-size="11" transform="matrix(1 0 0 1.00047 25.9135 23)">Sequential DAG</text><text font-family="Calibri,Calibri_MSFontService,sans-serif" font-weight="400" font-size="11" transform="matrix(1 0 0 1.00047 29.2216 124)">Combinational</text><text font-family="Calibri,Calibri_MSFontService,sans-serif" font-weight="400" font-size="11" transform="matrix(1 0 0 1.00047 51.4578 137)">DAG</text><path d="M16.5 82.2053C16.5 79.6267 18.5893 77.5364 21.1667 77.5364L98.8332 77.5364C101.411 77.5364 103.5 79.6267 103.5 82.2053L103.5 100.881C103.5 103.459 101.411 105.549 98.8332 105.549L21.1667 105.549C18.5893 105.549 16.5 103.459 16.5 100.881Z" stroke="#000000" stroke-width="0.999531" stroke-miterlimit="8" fill="none" fill-rule="evenodd"/><text font-family="Calibri,Calibri_MSFontService,sans-serif" font-weight="400" font-size="11" transform="matrix(1 0 0 1.00047 26.8587 90)">Combinational</text><text font-family="Calibri,Calibri_MSFontService,sans-serif" font-weight="400" font-size="11" transform="matrix(1 0 0 1.00047 18.0295 103)">Netlist Partitioning</text><text font-family="Calibri,Calibri_MSFontService,sans-serif" font-weight="400" font-size="11" transform="matrix(1 0 0 1.00047 31.7259 51)">Independent</text><text font-family="Calibri,Calibri_MSFontService,sans-serif" font-weight="400" font-size="11" transform="matrix(1 0 0 1.00047 19.7316 64)">Logic Cone Graphs</text><rect x="181.5" y="82.5387" width="54" height="23.0108" stroke="#000000" stroke-width="0.999531" stroke-miterlimit="8" fill="none"/><text font-family="Calibri,Calibri_MSFontService,sans-serif" font-weight="400" font-size="11" transform="matrix(1 0 0 1.00047 183.321 91)">Sequential</text><text font-family="Calibri,Calibri_MSFontService,sans-serif" font-weight="400" font-size="11" transform="matrix(1 0 0 1.00047 182.488 104)">Waveforms</text><path d="M176.5 118.222C176.5 116.196 178.142 114.554 180.167 114.554L235.833 114.554C237.858 114.554 239.5 116.196 239.5 118.222L239.5 132.896C239.5 134.922 237.858 136.564 235.833 136.564L180.167 136.564C178.142 136.564 176.5 134.922 176.5 132.896Z" stroke="#000000" stroke-width="0.999531" stroke-miterlimit="8" fill="none" fill-rule="evenodd"/><text font-family="Calibri,Calibri_MSFontService,sans-serif" font-weight="400" font-size="11" transform="matrix(1 0 0 1.00047 179.818 128)">Re</text><text font-family="Calibri,Calibri_MSFontService,sans-serif" font-weight="400" font-size="11" transform="matrix(1 0 0 1.00047 190.979 128)">-</text><text font-family="Calibri,Calibri_MSFontService,sans-serif" font-weight="400" font-size="11" transform="matrix(1 0 0 1.00047 194.311 128)">simulator</text><rect x="255.5" y="115.554" width="77" height="21.0099" stroke="#000000" stroke-width="0.999531" stroke-miterlimit="8" fill="none"/><text font-family="Calibri,Calibri_MSFontService,sans-serif" font-weight="400" font-size="11" transform="matrix(1 0 0 1.00047 262.604 129)">All Waveforms</text><path d="M132.5 2.50121 132.5 143.621" stroke="#FF0000" stroke-width="0.666354" stroke-miterlimit="8" stroke-dasharray="2.66542 1.99906 0.666354 1.99906" fill="none" fill-rule="evenodd"/><text fill="#FF0000" font-family="Calibri,Calibri_MSFontService,sans-serif" font-weight="400" font-size="9" transform="matrix(1 0 0 1.00047 98.7936 113)">Compile</text><path d="M1.94279e-06-0.333177 1.99906-0.333165 1.99906 0.333189-1.94279e-06 0.333177ZM2.66542-0.333161 4.66448-0.33315 4.66447 0.333204 2.66541 0.333192ZM5.33083-0.333146 7.32989-0.333134 7.32989 0.33322 5.33083 0.333208ZM7.99625-0.33313 9.99531-0.333119 9.99531 0.333235 7.99624 0.333224ZM10.6617-0.333115 12.6607-0.333103 12.6607 0.333251 10.6617 0.333239ZM13.3271-0.333099 13.998-0.333095 13.998 0.333259 13.3271 0.333255ZM12.6654-2.66534 17.9962 0.000104938 12.6653 2.66549Z" fill="#FF0000" transform="matrix(-1 0 0 1.00047 127.496 98.5462)"/><path d="M135.5 97.2125 137.499 97.2125 137.499 97.8792 135.5 97.8792ZM138.165 97.2125 140.164 97.2125 140.164 97.8792 138.165 97.8792ZM140.831 97.2125 142.83 97.2125 142.83 97.8792 140.831 97.8792ZM143.496 97.2125 145.495 97.2126 145.495 97.8792 143.496 97.8792ZM146.162 97.2126 148.161 97.2126 148.161 97.8792 146.162 97.8792ZM148.827 97.2126 150.614 97.2126 150.614 97.8792 148.827 97.8792ZM149.281 94.8792 154.612 97.5459 149.281 100.213Z" fill="#FF0000"/><text fill="#FF0000" font-family="Calibri,Calibri_MSFontService,sans-serif" font-weight="400" font-size="9" transform="matrix(1 0 0 1.00047 134.141 110)">Simulation</text><text fill="#FF0000" font-family="Calibri,Calibri_MSFontService,sans-serif" font-weight="400" font-size="9" transform="matrix(1 0 0 1.00047 136.307 121)">execution</text><path d="M144.5 43.0203C144.5 40.5338 146.515 38.5181 149 38.5181L269 38.5181C271.485 38.5181 273.5 40.5338 273.5 43.0203L273.5 61.0285C273.5 63.515 271.485 65.5307 269 65.5307L149 65.5307C146.515 65.5307 144.5 63.515 144.5 61.0285Z" stroke="#000000" stroke-width="0.999531" stroke-miterlimit="8" fill="none" fill-rule="evenodd"/><text font-family="Calibri,Calibri_MSFontService,sans-serif" font-weight="400" font-size="11" transform="matrix(1 0 0 1.00047 163.161 49)">Combinational Gates</text><text font-family="Calibri,Calibri_MSFontService,sans-serif" font-weight="400" font-size="11" transform="matrix(1 0 0 1.00047 185.397 62)">Simulation</text><path d="M144.5 10.0047C144.5 7.51826 146.515 5.50257 149 5.50257L269 5.50257C271.485 5.50257 273.5 7.51826 273.5 10.0047L273.5 28.013C273.5 30.4994 271.485 32.5151 269 32.5151L149 32.5151C146.515 32.5151 144.5 30.4994 144.5 28.013Z" stroke="#000000" stroke-width="0.999531" stroke-miterlimit="8" fill="none" fill-rule="evenodd"/><text font-family="Calibri,Calibri_MSFontService,sans-serif" font-weight="400" font-size="11" transform="matrix(1 0 0 1.00047 147.009 14)">Sequential Gates Simulation,</text><text font-family="Calibri,Calibri_MSFontService,sans-serif" font-weight="400" font-size="11" transform="matrix(1 0 0 1.00047 171.499 27)">SRAM Simulation</text><text font-family="Calibri,Calibri_MSFontService,sans-serif" font-weight="400" font-size="11" transform="matrix(1 0 0 1.00047 249.744 83)">0</text><text font-family="Calibri,Calibri_MSFontService,sans-serif" font-weight="400" font-size="11" transform="matrix(1 0 0 1.00047 255.075 83)">-</text><text font-family="Calibri,Calibri_MSFontService,sans-serif" font-weight="400" font-size="11" transform="matrix(1 0 0 1.00047 258.407 83)">Delay</text><text font-family="Calibri,Calibri_MSFontService,sans-serif" font-weight="400" font-size="11" transform="matrix(1 0 0 1.00047 245.246 96)">Simulator</text><path d="M137.5 13.1731C137.5 6.72658 142.723 1.50068 149.167 1.50068L266.833 1.50068C273.277 1.50068 278.5 6.72658 278.5 13.1731L278.5 59.8612C278.5 66.3076 273.277 71.5335 266.833 71.5335L149.167 71.5335C142.723 71.5335 137.5 66.3076 137.5 59.8612Z" stroke="#000000" stroke-width="0.999531" stroke-miterlimit="8" stroke-dasharray="3.99812 2.99859" fill="none" fill-rule="evenodd"/><path d="M116.5 19.0092 141.288 19.0093 141.288 20.0093 116.5 20.0092ZM139.956 16.8426 145.286 19.5093 139.956 22.1759Z"/><path d="M115.5 52.0246 140.288 52.0247 140.288 53.0247 115.5 53.0246ZM138.956 49.858 144.286 52.5247 138.956 55.1914Z"/><path d="M0.499765-6.83188e-06 0.499816 3.67827-0.499715 3.67828-0.499765 6.83188e-06ZM2.66545 2.34553 0.000104938 7.6764-2.66538 2.3456Z" transform="matrix(1 0 0 -1.00047 59.5 113.229)"/><path d="M0.499765-6.83188e-06 0.499816 3.67827-0.499715 3.67828-0.499765 6.83188e-06ZM2.66545 2.34553 0.000104938 7.6764-2.66538 2.3456Z" transform="matrix(1 0 0 -1.00047 59.5 78.2131)"/><path d="M210 72.5341 210 78.1341 209 78.1341 209 72.5341ZM212.165 76.8007 209.5 82.1341 206.835 76.8008Z"/><path d="M210 106.55 210 111.19 209 111.19 209 106.55ZM212.165 109.857 209.5 115.19 206.835 109.857Z"/><path d="M210 32.5153 210 35.2353 209 35.2353 209 32.5153ZM212.165 33.9019 209.5 39.2353 206.835 33.902Z"/><path d="M239.5 126.059 250.855 126.059 250.855 127.059 239.5 127.059ZM249.522 123.893 254.853 126.559 249.522 129.226Z"/><path d="M98.5 126.059 171.266 126.059 171.266 127.059 98.5 127.059ZM169.933 123.893 175.264 126.559 169.933 129.226Z"/><rect x="280.5" y="5.50257" width="74" height="35.0165" stroke="#172C51" stroke-width="0.999531" stroke-miterlimit="8" fill="none"/><text font-family="Calibri,Calibri_MSFontService,sans-serif" font-weight="400" font-size="11" transform="matrix(1 0 0 1.00047 300.396 13)">Primary</text><text font-family="Calibri,Calibri_MSFontService,sans-serif" font-weight="400" font-size="11" transform="matrix(1 0 0 1.00047 305.727 26)">Input</text><text font-family="Calibri,Calibri_MSFontService,sans-serif" font-weight="400" font-size="11" transform="matrix(1 0 0 1.00047 292.233 39)">Waveforms</text><path d="M7.37759e-06-0.499765 3.11046-0.499719 3.11045 0.499811-7.37759e-06 0.499765ZM1.77779-2.66539 7.10858 0.000104938 1.77771 2.66544Z" transform="matrix(-1 0 0 1.00047 280.609 22.5106)"/></g></svg>